<svg xmlns="http://www.w3.org/2000/svg" width="96.063" height="39" viewBox="0 0 96.063 39">
  <defs>
    <style>
      .cls-1 {
        fill: #333;
        fill-rule: evenodd;
      }
    </style>
  </defs>
  <path id="KBL.pc.svg" class="cls-1" d="M237.188,57.939L211.629,37v1.212l24.982-19.271h-2.827L209.61,37.63,234.3,57.939h2.885Zm-26.944,0v-39H208.4v39h1.846Zm48.58,0a15.617,15.617,0,0,0,6.693-1.327,9.932,9.932,0,0,0,5.943-9.4,9.96,9.96,0,0,0-2.222-6.52,10.882,10.882,0,0,0-6.144-3.635l-0.289.692a9.2,9.2,0,0,0,5.02-3.375,9.728,9.728,0,0,0,1.731-5.856,9.389,9.389,0,0,0-1.356-5.135,8.87,8.87,0,0,0-3.808-3.289,13.511,13.511,0,0,0-5.8-1.154H245.554V20.61h13.039a9.826,9.826,0,0,1,6.635,2.135,7.354,7.354,0,0,1,2.481,5.885,7.857,7.857,0,0,1-2.192,5.856,8.171,8.171,0,0,1-6,2.163H245.554v1.558h14.251a10.748,10.748,0,0,1,5.077,1.154,8.527,8.527,0,0,1,4.674,7.847,8.28,8.28,0,0,1-2.856,6.577,11.16,11.16,0,0,1-7.587,2.481H245.554v1.674h13.27Zm-12.347,0v-39h-1.846v39h1.846Zm36.176,0v-39h-1.847v39h1.847Zm21.809,0V56.266H281.845v1.674h22.617Z" transform="translate(-208.406 -18.938)"/>
</svg>
